<svg version="1.1" xmlns="http://www.w3.org/2000/svg" xmlns:xlink="http://www.w3.org/1999/xlink">

	<defs>
		<symbol id="facebook" viewBox="0 0 96.124 96.123">
			<title>FaceBook</title>
			<path d="M72.089.02L59.624 0C45.62 0 36.57 9.285 36.57 23.656v10.907H24.037a1.96 1.96 0 00-1.96 1.961v15.803a1.96 1.96 0 001.96 1.96H36.57v39.876a1.96 1.96 0 001.96 1.96h16.352a1.96 1.96 0 001.96-1.96V54.287h14.654a1.96 1.96 0 001.96-1.96l.006-15.803a1.963 1.963 0 00-1.961-1.961H56.842v-9.246c0-4.444 1.059-6.7 6.848-6.7l8.397-.003a1.96 1.96 0 001.959-1.96V1.98A1.96 1.96 0 0072.089.02z"></path>
		</symbol>

		<symbol id="twitter" viewBox="0 0 512 512">
			<path d="M512 97.248c-19.04 8.352-39.328 13.888-60.48 16.576 21.76-12.992 38.368-33.408 46.176-58.016-20.288 12.096-42.688 20.64-66.56 25.408C411.872 60.704 384.416 48 354.464 48c-58.112 0-104.896 47.168-104.896 104.992 0 8.32.704 16.32 2.432 23.936-87.264-4.256-164.48-46.08-216.352-109.792-9.056 15.712-14.368 33.696-14.368 53.056 0 36.352 18.72 68.576 46.624 87.232-16.864-.32-33.408-5.216-47.424-12.928v1.152c0 51.008 36.384 93.376 84.096 103.136-8.544 2.336-17.856 3.456-27.52 3.456-6.72 0-13.504-.384-19.872-1.792 13.6 41.568 52.192 72.128 98.08 73.12-35.712 27.936-81.056 44.768-130.144 44.768-8.608 0-16.864-.384-25.12-1.44C46.496 446.88 101.6 464 161.024 464c193.152 0 298.752-160 298.752-298.688 0-4.64-.16-9.12-.384-13.568 20.832-14.784 38.336-33.248 52.608-54.496z"></path>
		</symbol>

		<symbol id="linkedin" viewBox="0 0 24 24">
			<path d="M23.994 24v-.001H24v-8.802c0-4.306-.927-7.623-5.961-7.623-2.42 0-4.044 1.328-4.707 2.587h-.07V7.976H8.489v16.023h4.97v-7.934c0-2.089.396-4.109 2.983-4.109 2.549 0 2.587 2.384 2.587 4.243V24zM.396 7.977h4.976V24H.396zM2.882 0C1.291 0 0 1.291 0 2.882s1.291 2.909 2.882 2.909 2.882-1.318 2.882-2.909A2.884 2.884 0 002.882 0z"></path>
		</symbol>

		<symbol id="youtube" viewBox="0 0 512 512">
			<path d="M490.24 113.92c-13.888-24.704-28.96-29.248-59.648-30.976C399.936 80.864 322.848 80 256.064 80c-66.912 0-144.032.864-174.656 2.912-30.624 1.76-45.728 6.272-59.744 31.008C7.36 138.592 0 181.088 0 255.904v.256c0 74.496 7.36 117.312 21.664 141.728 14.016 24.704 29.088 29.184 59.712 31.264C112.032 430.944 189.152 432 256.064 432c66.784 0 143.872-1.056 174.56-2.816 30.688-2.08 45.76-6.56 59.648-31.264C504.704 373.504 512 330.688 512 256.192v-.256c0-74.848-7.296-117.344-21.76-142.016zM192 352V160l160 96-160 96z"></path>
		</symbol>

		<symbol id="mensagem" viewBox="0 0 74 74">
			<path d="M71 60.192H3a1 1 0 01-1-1v-44.36a1 1 0 011-1h68a1 1 0 011 1v44.36a1 1 0 01-1 1zm-67-2h66v-42.36H4z"></path>
			<path d="M37 42.719a14.454 14.454 0 01-9.924-3.92L2.315 15.537a1 1 0 011.37-1.458l24.76 23.262a12.518 12.518 0 0017.11 0l24.76-23.262a1 1 0 011.37 1.458L46.924 38.8A14.454 14.454 0 0137 42.719z"></path>
			<path d="M3 60.187a1 1 0 01-.641-1.768l25.007-20.886a1 1 0 111.282 1.535L3.641 59.954a1 1 0 01-.641.233zm68 0a1 1 0 01-.641-.233L45.352 39.068a1 1 0 111.282-1.535l25.007 20.886A1 1 0 0171 60.187z"></path>
		</symbol>

		<symbol id="phone-call" viewBox="0 0 512.029 512.029">
			<path d="M305.802 178.588c27.229 7.297 43.448 35.388 36.152 62.619-2.077 7.753-1.011 15.85 3.002 22.8s10.491 11.922 18.244 14a30.002 30.002 0 007.77 1.027c13.266 0 25.438-8.866 29.03-22.274 15.872-59.238-19.407-120.344-78.645-136.217-16.007-4.288-32.511 5.242-36.801 21.246-4.287 16.002 5.245 32.51 21.248 36.799zm-1.928-31.622a9.976 9.976 0 014.682-6.101 9.984 9.984 0 017.624-1.003c48.585 13.019 77.522 63.137 64.503 111.723-1.434 5.351-6.956 8.537-12.305 7.104-2.592-.695-4.759-2.357-6.101-4.681s-1.698-5.032-1.004-7.624c10.149-37.883-12.412-76.961-50.294-87.113-5.351-1.435-8.539-6.955-7.105-12.305z"></path>
			<path d="M342.365 42.135c-15.999-4.287-32.511 5.243-36.8 21.247-2.077 7.752-1.011 15.85 3.002 22.8 4.013 6.951 10.493 11.922 18.245 13.999 70.464 18.882 112.431 91.571 93.551 162.036-2.077 7.753-1.011 15.85 3.002 22.8 4.012 6.95 10.491 11.922 18.244 13.999a29.996 29.996 0 007.77 1.027c13.265 0 25.436-8.865 29.03-22.273 27.457-102.473-33.571-208.178-136.044-235.635zm116.726 230.457c-1.434 5.352-6.951 8.539-12.306 7.104a9.976 9.976 0 01-6.099-4.68l-.001-.001a9.984 9.984 0 01-1.004-7.624c21.734-81.117-26.576-164.794-107.693-186.53-5.351-1.434-8.538-6.954-7.104-12.304 1.202-4.484 5.272-7.448 9.707-7.448.858 0 1.73.111 2.599.343 91.818 24.605 146.503 119.321 121.901 211.14zm-83.76 76.281c-13.271-22.985-42.766-30.892-65.753-17.619l-40.718 23.508a8.23 8.23 0 01-6.293.828 8.235 8.235 0 01-5.035-3.864l-91.666-158.771a8.239 8.239 0 01-.828-6.293 8.234 8.234 0 013.863-5.035l40.717-23.508c22.985-13.271 30.889-42.768 17.619-65.753l-39.438-68.309c-13.27-22.986-42.767-30.888-65.753-17.619l-13.833 7.987C30.66 59.2 3.994 158.72 48.768 236.272l33.69 58.352c2.761 4.783 8.876 6.421 13.66 3.66 4.783-2.761 6.422-8.877 3.66-13.66l-33.689-58.352C33.96 170.624 43.791 102.081 85.687 57.497l65.463 113.385a28.2 28.2 0 00-5.431 10.605c-1.956 7.3-.952 14.924 2.827 21.469l91.666 158.771c3.778 6.544 9.879 11.226 17.18 13.182a28.177 28.177 0 0011.899.599l65.077 112.717c-22.649 5.367-46.41 5.074-69.525-1.119-36.741-9.845-67.45-33.408-86.468-66.35l-33.599-58.195c-2.762-4.784-8.877-6.422-13.66-3.66-4.783 2.761-6.422 8.877-3.66 13.66l33.599 58.195c21.689 37.568 56.711 64.44 98.612 75.668 13.992 3.749 28.19 5.604 42.298 5.604 28.14 0 55.914-7.381 80.938-21.828l13.833-7.987c11.135-6.429 19.1-16.809 22.427-29.228 3.328-12.419 1.62-25.391-4.809-36.525zM118.212 31.746l13.833-7.987c6.508-3.758 14.091-4.755 21.349-2.811 7.259 1.945 13.326 6.601 17.084 13.109l39.438 68.309c7.756 13.435 3.137 30.676-10.298 38.433l-32.057 18.508-66.794-115.69a142.958 142.958 0 0117.445-11.871zm281.63 416.064c-1.944 7.259-6.601 13.326-13.108 17.084l-13.833 7.987a144.394 144.394 0 01-18.991 9.192l-66.389-114.99 32.058-18.508c13.436-7.756 30.676-3.136 38.433 10.298l39.021 67.588c3.757 6.508 4.755 14.09 2.809 21.349z"></path>
			<path d="M113.725 318.534a10.1 10.1 0 00-7.08 2.93 10.048 10.048 0 00-2.92 7.07c0 2.63 1.06 5.21 2.92 7.07 1.87 1.86 4.45 2.93 7.08 2.93s5.21-1.07 7.07-2.93 2.93-4.44 2.93-7.07c0-2.64-1.07-5.21-2.93-7.07a10.071 10.071 0 00-7.07-2.93z"></path>
		</symbol>

		<symbol id="pin" viewBox="0 0 368.16 368.16">
			<path d="M184.08 0c-74.992 0-136 61.008-136 136 0 24.688 11.072 51.24 11.536 52.36 3.576 8.488 10.632 21.672 15.72 29.4l93.248 141.288c3.816 5.792 9.464 9.112 15.496 9.112s11.68-3.32 15.496-9.104l93.256-141.296c5.096-7.728 12.144-20.912 15.72-29.4.464-1.112 11.528-27.664 11.528-52.36 0-74.992-61.008-136-136-136zM293.8 182.152c-3.192 7.608-9.76 19.872-14.328 26.8l-93.256 141.296c-1.84 2.792-2.424 2.792-4.264 0L88.696 208.952c-4.568-6.928-11.136-19.2-14.328-26.808-.136-.328-10.288-24.768-10.288-46.144 0-66.168 53.832-120 120-120s120 53.832 120 120c0 21.408-10.176 45.912-10.28 46.152z"></path>
			<path d="M184.08 64.008c-39.704 0-72 32.304-72 72s32.296 72 72 72 72-32.304 72-72-32.296-72-72-72zm0 128c-30.872 0-56-25.12-56-56s25.128-56 56-56 56 25.12 56 56-25.128 56-56 56z"></path>
		</symbol>

		<symbol id="whatsapp" viewBox="0 0 465 465">
			<path d="M343.047 294.476c-17.105-17.104-35.09-31.282-35.847-31.877a7.5 7.5 0 00-9.938.593l-21.203 21.204-56.917-56.917a7.5 7.5 0 00-10.607 10.607l62.221 62.22a7.502 7.502 0 0010.607 0l21.726-21.727c6.529 5.398 18.266 15.417 29.352 26.504 11.12 11.119 21.165 22.892 26.552 29.41-10.076 9.812-28.982 25.597-43.045 26.893-28.911 2.669-83.581-29.971-132.971-79.36-49.391-49.389-82.025-104.069-79.361-132.973 1.296-14.063 17.083-32.971 26.894-43.045 6.513 5.382 18.275 15.418 29.409 26.553 11.087 11.086 21.106 22.822 26.504 29.353l-21.726 21.725a7.5 7.5 0 00-.001 10.608l22.627 22.627a7.5 7.5 0 0010.607-10.607l-17.324-17.323 21.203-21.202a7.5 7.5 0 00.594-9.938c-.595-.757-14.772-18.742-31.877-35.848-17.105-17.105-35.091-31.282-35.848-31.877a7.5 7.5 0 00-9.713.377c-3.468 3.19-33.953 31.904-36.287 57.223-3.092 33.554 30.541 91.808 83.691 144.957 50.893 50.892 106.459 83.89 140.544 83.887 1.512 0 2.986-.065 4.411-.196 25.319-2.335 54.033-32.819 57.224-36.287a7.501 7.501 0 00.377-9.713c-.596-.761-14.773-18.745-31.878-35.851z"></path>
			<path d="M396.902 68.098C352.988 24.185 294.603 0 232.5 0S112.012 24.185 68.098 68.098C24.185 112.012 0 170.397 0 232.501c0 45.764 13.241 89.906 38.329 127.906L9.94 445.572a7.502 7.502 0 009.488 9.488l85.165-28.388C142.592 451.759 186.734 465 232.5 465c62.103 0 120.488-24.185 164.402-68.098C440.815 352.989 465 294.604 465 232.501c0-62.104-24.185-120.489-68.098-164.403zM232.5 450c-43.987 0-86.365-13.071-122.553-37.801a7.5 7.5 0 00-6.603-.923l-74.43 24.81 24.811-74.43a7.502 7.502 0 00-.923-6.604C28.071 318.864 15 276.486 15 232.501 15 112.57 112.57 15 232.5 15S450 112.57 450 232.501C450 352.431 352.43 450 232.5 450z"></path>
		</symbol>
		<symbol id="drone" viewBox="0 0 512 512">
			<path d="M256 241c-8.27 0-15 6.73-15 15s6.73 15 15 15 15-6.73 15-15-6.73-15-15-15zm0 0"></path>
			<path d="M371.07 413.5c11.73 11.719 30.711 11.719 42.43 0 11.73-11.73 11.719-30.71 0-42.43l-51.441-51.43c-17-17-26.36-39.6-26.36-63.64s9.36-46.64 26.36-63.64l51.441-51.43c11.73-11.73 11.719-30.711 0-42.43-11.73-11.719-30.7-11.719-42.43 0l-51.43 51.441c-17 17-39.6 26.36-63.64 26.36s-46.64-9.36-63.64-26.36L140.93 98.5c-11.73-11.719-30.711-11.719-42.43 0-11.73 11.73-11.719 30.71 0 42.43l51.441 51.43c17 17 26.36 39.6 26.36 63.64s-9.36 46.64-26.36 63.64L98.5 371.07c-11.719 11.73-11.719 30.711 0 42.43 11.73 11.719 30.7 11.719 42.43 0l51.43-51.441c17-17 39.6-26.36 63.64-26.36s46.64 9.36 63.64 26.36zM256 301c-24.809 0-45-20.191-45-45s20.191-45 45-45 45 20.191 45 45-20.191 45-45 45zm0 0"></path>
			<path d="M349.852 77.29c23.449-23.43 61.367-23.481 84.847-.009 23.461 23.45 23.492 61.39.012 84.86l-46.242 46.238A105.351 105.351 0 00407 210c57.898 0 105-47.102 105-105S464.898 0 407 0 302 47.102 302 105c0 6.281.54 12.469 1.621 18.54zM407 302c-6.281 0-12.48.54-18.54 1.621l46.25 46.23c23.462 23.458 23.47 61.399 0 84.86-23.448 23.45-61.382 23.46-84.839.008l-46.25-46.25A105.417 105.417 0 00302 407c0 57.898 47.102 105 105 105s105-47.102 105-105-47.102-105-105-105zm-302-92c6.281 0 12.48-.54 18.54-1.621l-46.25-46.23c-23.462-23.458-23.47-61.399 0-84.86 23.448-23.45 61.382-23.46 84.839-.008l46.25 46.25A105.417 105.417 0 00210 105C210 47.102 162.898 0 105 0S0 47.102 0 105s47.102 105 105 105zm57.148 224.71c-23.449 23.43-61.367 23.481-84.847.009-23.403-23.39-23.403-61.45-.02-84.848l46.258-46.25A105.407 105.407 0 00105 302C47.102 302 0 349.102 0 407s47.102 105 105 105 105-47.102 105-105c0-6.281-.54-12.469-1.621-18.54zm0 0"></path>
		</symbol>
	</defs>

</svg>