<svg version="1.1" xmlns="http://www.w3.org/2000/svg" xmlns:xlink="http://www.w3.org/1999/xlink">

	<defs>
		<symbol id="facebook" viewBox="0 0 96.124 96.123">
			<title>FaceBook</title>
			<path d="M72.089.02L59.624 0C45.62 0 36.57 9.285 36.57 23.656v10.907H24.037a1.96 1.96 0 00-1.96 1.961v15.803a1.96 1.96 0 001.96 1.96H36.57v39.876a1.96 1.96 0 001.96 1.96h16.352a1.96 1.96 0 001.96-1.96V54.287h14.654a1.96 1.96 0 001.96-1.96l.006-15.803a1.963 1.963 0 00-1.961-1.961H56.842v-9.246c0-4.444 1.059-6.7 6.848-6.7l8.397-.003a1.96 1.96 0 001.959-1.96V1.98A1.96 1.96 0 0072.089.02z"></path>
		</symbol>

		<symbol id="twitter" viewBox="0 0 512 512">
			<path d="M512 97.248c-19.04 8.352-39.328 13.888-60.48 16.576 21.76-12.992 38.368-33.408 46.176-58.016-20.288 12.096-42.688 20.64-66.56 25.408C411.872 60.704 384.416 48 354.464 48c-58.112 0-104.896 47.168-104.896 104.992 0 8.32.704 16.32 2.432 23.936-87.264-4.256-164.48-46.08-216.352-109.792-9.056 15.712-14.368 33.696-14.368 53.056 0 36.352 18.72 68.576 46.624 87.232-16.864-.32-33.408-5.216-47.424-12.928v1.152c0 51.008 36.384 93.376 84.096 103.136-8.544 2.336-17.856 3.456-27.52 3.456-6.72 0-13.504-.384-19.872-1.792 13.6 41.568 52.192 72.128 98.08 73.12-35.712 27.936-81.056 44.768-130.144 44.768-8.608 0-16.864-.384-25.12-1.44C46.496 446.88 101.6 464 161.024 464c193.152 0 298.752-160 298.752-298.688 0-4.64-.16-9.12-.384-13.568 20.832-14.784 38.336-33.248 52.608-54.496z"></path>
		</symbol>

		<symbol id="linkedin" viewBox="0 0 24 24">
			<path d="M23.994 24v-.001H24v-8.802c0-4.306-.927-7.623-5.961-7.623-2.42 0-4.044 1.328-4.707 2.587h-.07V7.976H8.489v16.023h4.97v-7.934c0-2.089.396-4.109 2.983-4.109 2.549 0 2.587 2.384 2.587 4.243V24zM.396 7.977h4.976V24H.396zM2.882 0C1.291 0 0 1.291 0 2.882s1.291 2.909 2.882 2.909 2.882-1.318 2.882-2.909A2.884 2.884 0 002.882 0z"></path>
		</symbol>

		<symbol id="youtube" viewBox="0 0 512 512">
			<path d="M490.24 113.92c-13.888-24.704-28.96-29.248-59.648-30.976C399.936 80.864 322.848 80 256.064 80c-66.912 0-144.032.864-174.656 2.912-30.624 1.76-45.728 6.272-59.744 31.008C7.36 138.592 0 181.088 0 255.904v.256c0 74.496 7.36 117.312 21.664 141.728 14.016 24.704 29.088 29.184 59.712 31.264C112.032 430.944 189.152 432 256.064 432c66.784 0 143.872-1.056 174.56-2.816 30.688-2.08 45.76-6.56 59.648-31.264C504.704 373.504 512 330.688 512 256.192v-.256c0-74.848-7.296-117.344-21.76-142.016zM192 352V160l160 96-160 96z"></path>
		</symbol>

		<symbol id="mensagem" viewBox="0 0 74 74">
			<path d="M71 60.192H3a1 1 0 01-1-1v-44.36a1 1 0 011-1h68a1 1 0 011 1v44.36a1 1 0 01-1 1zm-67-2h66v-42.36H4z"></path>
			<path d="M37 42.719a14.454 14.454 0 01-9.924-3.92L2.315 15.537a1 1 0 011.37-1.458l24.76 23.262a12.518 12.518 0 0017.11 0l24.76-23.262a1 1 0 011.37 1.458L46.924 38.8A14.454 14.454 0 0137 42.719z"></path>
			<path d="M3 60.187a1 1 0 01-.641-1.768l25.007-20.886a1 1 0 111.282 1.535L3.641 59.954a1 1 0 01-.641.233zm68 0a1 1 0 01-.641-.233L45.352 39.068a1 1 0 111.282-1.535l25.007 20.886A1 1 0 0171 60.187z"></path>
		</symbol>

		<symbol id="phone-call" viewBox="0 0 512.029 512.029">
			<path d="M305.802 178.588c27.229 7.297 43.448 35.388 36.152 62.619-2.077 7.753-1.011 15.85 3.002 22.8s10.491 11.922 18.244 14a30.002 30.002 0 007.77 1.027c13.266 0 25.438-8.866 29.03-22.274 15.872-59.238-19.407-120.344-78.645-136.217-16.007-4.288-32.511 5.242-36.801 21.246-4.287 16.002 5.245 32.51 21.248 36.799zm-1.928-31.622a9.976 9.976 0 014.682-6.101 9.984 9.984 0 017.624-1.003c48.585 13.019 77.522 63.137 64.503 111.723-1.434 5.351-6.956 8.537-12.305 7.104-2.592-.695-4.759-2.357-6.101-4.681s-1.698-5.032-1.004-7.624c10.149-37.883-12.412-76.961-50.294-87.113-5.351-1.435-8.539-6.955-7.105-12.305z"></path>
			<path d="M342.365 42.135c-15.999-4.287-32.511 5.243-36.8 21.247-2.077 7.752-1.011 15.85 3.002 22.8 4.013 6.951 10.493 11.922 18.245 13.999 70.464 18.882 112.431 91.571 93.551 162.036-2.077 7.753-1.011 15.85 3.002 22.8 4.012 6.95 10.491 11.922 18.244 13.999a29.996 29.996 0 007.77 1.027c13.265 0 25.436-8.865 29.03-22.273 27.457-102.473-33.571-208.178-136.044-235.635zm116.726 230.457c-1.434 5.352-6.951 8.539-12.306 7.104a9.976 9.976 0 01-6.099-4.68l-.001-.001a9.984 9.984 0 01-1.004-7.624c21.734-81.117-26.576-164.794-107.693-186.53-5.351-1.434-8.538-6.954-7.104-12.304 1.202-4.484 5.272-7.448 9.707-7.448.858 0 1.73.111 2.599.343 91.818 24.605 146.503 119.321 121.901 211.14zm-83.76 76.281c-13.271-22.985-42.766-30.892-65.753-17.619l-40.718 23.508a8.23 8.23 0 01-6.293.828 8.235 8.235 0 01-5.035-3.864l-91.666-158.771a8.239 8.239 0 01-.828-6.293 8.234 8.234 0 013.863-5.035l40.717-23.508c22.985-13.271 30.889-42.768 17.619-65.753l-39.438-68.309c-13.27-22.986-42.767-30.888-65.753-17.619l-13.833 7.987C30.66 59.2 3.994 158.72 48.768 236.272l33.69 58.352c2.761 4.783 8.876 6.421 13.66 3.66 4.783-2.761 6.422-8.877 3.66-13.66l-33.689-58.352C33.96 170.624 43.791 102.081 85.687 57.497l65.463 113.385a28.2 28.2 0 00-5.431 10.605c-1.956 7.3-.952 14.924 2.827 21.469l91.666 158.771c3.778 6.544 9.879 11.226 17.18 13.182a28.177 28.177 0 0011.899.599l65.077 112.717c-22.649 5.367-46.41 5.074-69.525-1.119-36.741-9.845-67.45-33.408-86.468-66.35l-33.599-58.195c-2.762-4.784-8.877-6.422-13.66-3.66-4.783 2.761-6.422 8.877-3.66 13.66l33.599 58.195c21.689 37.568 56.711 64.44 98.612 75.668 13.992 3.749 28.19 5.604 42.298 5.604 28.14 0 55.914-7.381 80.938-21.828l13.833-7.987c11.135-6.429 19.1-16.809 22.427-29.228 3.328-12.419 1.62-25.391-4.809-36.525zM118.212 31.746l13.833-7.987c6.508-3.758 14.091-4.755 21.349-2.811 7.259 1.945 13.326 6.601 17.084 13.109l39.438 68.309c7.756 13.435 3.137 30.676-10.298 38.433l-32.057 18.508-66.794-115.69a142.958 142.958 0 0117.445-11.871zm281.63 416.064c-1.944 7.259-6.601 13.326-13.108 17.084l-13.833 7.987a144.394 144.394 0 01-18.991 9.192l-66.389-114.99 32.058-18.508c13.436-7.756 30.676-3.136 38.433 10.298l39.021 67.588c3.757 6.508 4.755 14.09 2.809 21.349z"></path>
			<path d="M113.725 318.534a10.1 10.1 0 00-7.08 2.93 10.048 10.048 0 00-2.92 7.07c0 2.63 1.06 5.21 2.92 7.07 1.87 1.86 4.45 2.93 7.08 2.93s5.21-1.07 7.07-2.93 2.93-4.44 2.93-7.07c0-2.64-1.07-5.21-2.93-7.07a10.071 10.071 0 00-7.07-2.93z"></path>
		</symbol>

		<symbol id="pin" viewBox="0 0 368.16 368.16">
			<path d="M184.08 0c-74.992 0-136 61.008-136 136 0 24.688 11.072 51.24 11.536 52.36 3.576 8.488 10.632 21.672 15.72 29.4l93.248 141.288c3.816 5.792 9.464 9.112 15.496 9.112s11.68-3.32 15.496-9.104l93.256-141.296c5.096-7.728 12.144-20.912 15.72-29.4.464-1.112 11.528-27.664 11.528-52.36 0-74.992-61.008-136-136-136zM293.8 182.152c-3.192 7.608-9.76 19.872-14.328 26.8l-93.256 141.296c-1.84 2.792-2.424 2.792-4.264 0L88.696 208.952c-4.568-6.928-11.136-19.2-14.328-26.808-.136-.328-10.288-24.768-10.288-46.144 0-66.168 53.832-120 120-120s120 53.832 120 120c0 21.408-10.176 45.912-10.28 46.152z"></path>
			<path d="M184.08 64.008c-39.704 0-72 32.304-72 72s32.296 72 72 72 72-32.304 72-72-32.296-72-72-72zm0 128c-30.872 0-56-25.12-56-56s25.128-56 56-56 56 25.12 56 56-25.128 56-56 56z"></path>
		</symbol>

		<symbol id="whatsapp" viewBox="0 0 465 465">
			<path d="M343.047 294.476c-17.105-17.104-35.09-31.282-35.847-31.877a7.5 7.5 0 00-9.938.593l-21.203 21.204-56.917-56.917a7.5 7.5 0 00-10.607 10.607l62.221 62.22a7.502 7.502 0 0010.607 0l21.726-21.727c6.529 5.398 18.266 15.417 29.352 26.504 11.12 11.119 21.165 22.892 26.552 29.41-10.076 9.812-28.982 25.597-43.045 26.893-28.911 2.669-83.581-29.971-132.971-79.36-49.391-49.389-82.025-104.069-79.361-132.973 1.296-14.063 17.083-32.971 26.894-43.045 6.513 5.382 18.275 15.418 29.409 26.553 11.087 11.086 21.106 22.822 26.504 29.353l-21.726 21.725a7.5 7.5 0 00-.001 10.608l22.627 22.627a7.5 7.5 0 0010.607-10.607l-17.324-17.323 21.203-21.202a7.5 7.5 0 00.594-9.938c-.595-.757-14.772-18.742-31.877-35.848-17.105-17.105-35.091-31.282-35.848-31.877a7.5 7.5 0 00-9.713.377c-3.468 3.19-33.953 31.904-36.287 57.223-3.092 33.554 30.541 91.808 83.691 144.957 50.893 50.892 106.459 83.89 140.544 83.887 1.512 0 2.986-.065 4.411-.196 25.319-2.335 54.033-32.819 57.224-36.287a7.501 7.501 0 00.377-9.713c-.596-.761-14.773-18.745-31.878-35.851z"></path>
			<path d="M396.902 68.098C352.988 24.185 294.603 0 232.5 0S112.012 24.185 68.098 68.098C24.185 112.012 0 170.397 0 232.501c0 45.764 13.241 89.906 38.329 127.906L9.94 445.572a7.502 7.502 0 009.488 9.488l85.165-28.388C142.592 451.759 186.734 465 232.5 465c62.103 0 120.488-24.185 164.402-68.098C440.815 352.989 465 294.604 465 232.501c0-62.104-24.185-120.489-68.098-164.403zM232.5 450c-43.987 0-86.365-13.071-122.553-37.801a7.5 7.5 0 00-6.603-.923l-74.43 24.81 24.811-74.43a7.502 7.502 0 00-.923-6.604C28.071 318.864 15 276.486 15 232.501 15 112.57 112.57 15 232.5 15S450 112.57 450 232.501C450 352.431 352.43 450 232.5 450z"></path>
		</symbol>
		<symbol id="drone" viewBox="0 0 512 512">
			<path d="M256 241c-8.27 0-15 6.73-15 15s6.73 15 15 15 15-6.73 15-15-6.73-15-15-15zm0 0"></path>
			<path d="M371.07 413.5c11.73 11.719 30.711 11.719 42.43 0 11.73-11.73 11.719-30.71 0-42.43l-51.441-51.43c-17-17-26.36-39.6-26.36-63.64s9.36-46.64 26.36-63.64l51.441-51.43c11.73-11.73 11.719-30.711 0-42.43-11.73-11.719-30.7-11.719-42.43 0l-51.43 51.441c-17 17-39.6 26.36-63.64 26.36s-46.64-9.36-63.64-26.36L140.93 98.5c-11.73-11.719-30.711-11.719-42.43 0-11.73 11.73-11.719 30.71 0 42.43l51.441 51.43c17 17 26.36 39.6 26.36 63.64s-9.36 46.64-26.36 63.64L98.5 371.07c-11.719 11.73-11.719 30.711 0 42.43 11.73 11.719 30.7 11.719 42.43 0l51.43-51.441c17-17 39.6-26.36 63.64-26.36s46.64 9.36 63.64 26.36zM256 301c-24.809 0-45-20.191-45-45s20.191-45 45-45 45 20.191 45 45-20.191 45-45 45zm0 0"></path>
			<path d="M349.852 77.29c23.449-23.43 61.367-23.481 84.847-.009 23.461 23.45 23.492 61.39.012 84.86l-46.242 46.238A105.351 105.351 0 00407 210c57.898 0 105-47.102 105-105S464.898 0 407 0 302 47.102 302 105c0 6.281.54 12.469 1.621 18.54zM407 302c-6.281 0-12.48.54-18.54 1.621l46.25 46.23c23.462 23.458 23.47 61.399 0 84.86-23.448 23.45-61.382 23.46-84.839.008l-46.25-46.25A105.417 105.417 0 00302 407c0 57.898 47.102 105 105 105s105-47.102 105-105-47.102-105-105-105zm-302-92c6.281 0 12.48-.54 18.54-1.621l-46.25-46.23c-23.462-23.458-23.47-61.399 0-84.86 23.448-23.45 61.382-23.46 84.839-.008l46.25 46.25A105.417 105.417 0 00210 105C210 47.102 162.898 0 105 0S0 47.102 0 105s47.102 105 105 105zm57.148 224.71c-23.449 23.43-61.367 23.481-84.847.009-23.403-23.39-23.403-61.45-.02-84.848l46.258-46.25A105.407 105.407 0 00105 302C47.102 302 0 349.102 0 407s47.102 105 105 105 105-47.102 105-105c0-6.281-.54-12.469-1.621-18.54zm0 0"></path>
		</symbol>
		<symbol id="eye" viewBox="0 0 510 510">
			<path d="M.441 255l24.748 24.749h.001c34.114 34.114 74.482 59.695 118.513 75.705-51.549-57.058-51.678-143.708-.001-200.908-44.029 16.01-84.397 41.591-118.512 75.705zm365.856-100.454c51.545 57.053 51.683 143.703-.001 200.909 44.03-16.01 84.399-41.591 118.514-75.706L509.56 255l-24.75-24.749c-34.115-34.114-74.483-59.695-118.513-75.705zM255 225c-16.542 0-30 13.458-30 30 1.648 39.799 58.358 39.788 60 0 0-16.542-13.458-30-30-30z"></path>
			<path d="M375 255c0-66.169-53.832-120-120-120-159.196 6.591-159.15 233.433.001 240C321.168 375 375 321.168 375 255zm-120 60c-33.084 0-60-26.916-60-60 3.296-79.598 116.716-79.575 120 0 0 33.084-26.916 60-60 60zM30 87.42v38.794l30 37.087a352.11 352.11 0 0130-17.736v-1.778l-30-30V87.42C106.977 70.035 95.719.958 44.999 0-5.727.962-16.971 70.044 30 87.42zm450 335.16v-38.793l-30-30V346.7a352.1 352.1 0 01-30 17.735v1.777l30 30v26.367c-46.977 17.384-35.719 86.463 15.001 87.42 50.727-.96 61.969-70.044 14.999-87.419zm0-296.367V87.42C526.977 70.035 515.719.958 464.999 0 414.272.962 403.03 70.044 450 87.42v26.367l-30 30v1.778a352.11 352.11 0 0130 17.736c47.102-58.229 22.75-28.125 30-37.088zm-150-13.236a351.866 351.866 0 0130 7.805v-9.568l30-30V0h-30v68.787l-30 30zm-30-31.764l30-30V0h-30v38.787l-30 30v36.606a359.662 359.662 0 0130 2.486zm-90 26.666a359.662 359.662 0 0130-2.486V68.787l-30-30V0h-30v51.213l30 30zm-60 12.903a351.493 351.493 0 0130-7.805v-14.19l-30-30V0h-30v81.213l30 30zM60 353.787l-30 30v38.793C-16.978 439.965-5.719 509.042 45.001 510c50.727-.961 61.97-70.044 14.999-87.42v-26.367l30-30v-1.778A352.1 352.1 0 0160 346.7zm120 43.236a351.866 351.866 0 01-30-7.805v9.568l-30 30V510h30v-68.787l30-30zm30 31.764l-30 30V510h30v-38.787l30-30v-36.605a359.662 359.662 0 01-30-2.486zm90-26.665a359.662 359.662 0 01-30 2.486v36.605l30 30V510h30v-51.213l-30-30zm60-12.903a351.493 351.493 0 01-30 7.805v14.189l30 30V510h30v-81.213l-30-30z"></path>
		</symbol>
		<symbol id="iot" viewBox="0 0 512 512">
			<path d="M360 456a24 24 0 11-24-24 24.028 24.028 0 0124 24zM56 360a24 24 0 10-24-24 24.028 24.028 0 0024 24zM312 56a24 24 0 1024-24 24.028 24.028 0 00-24 24zM176 432a24 24 0 1024 24 24.028 24.028 0 00-24-24zM56 200a24 24 0 10-24-24 24.028 24.028 0 0024 24zm8 15.2a40.1 40.1 0 0025.4-17.22l59.63 23.853 5.942-14.856-59.62-23.852a39.795 39.795 0 00-6-29.167l64.6-64.6a39.795 39.795 0 0029.167 6l4.647 11.619 14.856-5.942-4.646-11.635A40.1 40.1 0 00215.2 64h81.61a40.1 40.1 0 0017.219 25.4l-7.852 19.63 14.855 5.942 7.848-19.619a39.795 39.795 0 0029.167-6l64.6 64.6a39.795 39.795 0 00-6 29.167l-59.619 23.847 5.942 14.856 59.63-23.853A40.1 40.1 0 00448 215.2v81.61a40.1 40.1 0 00-25.4 17.22l-23.63-9.453-5.942 14.856 23.619 9.447a39.795 39.795 0 006 29.167l-64.6 64.6A39.972 39.972 0 00296.805 448H215.2a40.1 40.1 0 00-17.219-25.4l4.652-11.63-14.856-5.942-4.647 11.619a39.795 39.795 0 00-29.167 6l-64.6-64.6a39.795 39.795 0 006-29.167l59.619-23.847-5.942-14.856-59.64 23.848a40.1 40.1 0 00-25.4-17.22zM168 368a32.036 32.036 0 0032 32h120v-8a7.994 7.994 0 00-.845-3.578l-3.1-6.2a41.8 41.8 0 012.6-41.784 8 8 0 00-1-10.095l-27.029-27.029a8.97 8.97 0 1112.685-12.687l43.03 43.03 11.314-11.314L344 308.686v-57.372l14.628 14.627A31.79 31.79 0 01368 288.568V376h16v-87.432a47.686 47.686 0 00-14.059-33.941L344 228.686V152a32.036 32.036 0 00-32-32H200a32.036 32.036 0 00-32 32zm16 0V152a16.019 16.019 0 0116-16h19.056l5.789 11.578A8 8 0 00232 152h48a8 8 0 007.155-4.422L292.944 136H312a16.019 16.019 0 0116 16v140.686l-13.372-13.372a24.971 24.971 0 00-35.315 35.313l22.67 22.67a57.869 57.869 0 00-2.569 46.7H200A16.019 16.019 0 01184 368zm48-88h-16v16h16zm40 72h-32v16h32zm-8-56v-16h-16v16zm21.657-53.657a41.989 41.989 0 00-59.314 0l11.314 11.314a25.969 25.969 0 0136.686 0zm-83.314-20.117l11.314 11.313a59.882 59.882 0 0184.686 0l11.314-11.313a75.968 75.968 0 00-107.314 0zM456 312a24 24 0 1024 24 24.028 24.028 0 00-24-24zm0-160a24 24 0 1024 24 24.028 24.028 0 00-24-24zM176 80a24 24 0 10-24-24 24.028 24.028 0 0024 24z"></path>
		</symbol>
		<symbol id="industry" viewBox="0 0 64 64">
			<path d="M47 43a1 1 0 011-1h5.87l-.75-6h-8.38l-5.4 18H47zM25 14a5 5 0 10-5-5 5 5 0 005 5zm-1-6h2v2h-2z"></path>
			<path d="M49 44h11v10H49zm-6.71-33a7.042 7.042 0 010-4H31.71a7.042 7.042 0 010 4zM42 30h14v4H42zm7-14a6.884 6.884 0 01-3-.69V28h6V15.31a6.884 6.884 0 01-3 .69zm0-2a5 5 0 10-5-5 5 5 0 005 5zm-1-6h2v2h-2zM19.59 54l-2-2h-7.18l-2 2zM4 56h56v4H4zm10-33a3 3 0 10-3-3 3.009 3.009 0 003 3zm-1-4h2v2h-2zm1 18a3 3 0 10-3-3 3.009 3.009 0 003 3zm-1-4h2v2h-2zm8.394-11.608l1.412 1.417a13 13 0 0118.388 0l1.412-1.417a15 15 0 00-21.212 0z"></path>
			<path d="M39.777 24.223a10.994 10.994 0 00-15.554 0l1.414 1.414a9 9 0 0112.726 0z"></path>
			<path d="M36.95 27.056a6.987 6.987 0 00-9.9 0l1.42 1.408a4.988 4.988 0 017.06 0z"></path>
			<circle cx="32" cy="32" r="3"></circle>
			<path d="M13 24.9v4.2a5.05 5.05 0 012 0v-4.2a5.05 5.05 0 01-2 0zm4.95-7.93l2.58-2.59a7.243 7.243 0 01-1.34-1.48l-2.76 2.76a4.9 4.9 0 011.52 1.31zM8.71 48.29L5 44.59v-4.18L9.42 36A4.941 4.941 0 019 34a3.4 3.4 0 01.03-.45l-5.74 5.74A1.033 1.033 0 003 40v5a1.033 1.033 0 00.29.71l4 4zm10.58 0l1.42 1.42 4-4A1.033 1.033 0 0025 45v-5a1.033 1.033 0 00-.29-.71l-5.74-5.74A3.4 3.4 0 0119 34a4.941 4.941 0 01-.42 2L23 40.41v4.18z"></path>
		</symbol>
		<symbol id="previous" viewBox='0 0 512 512'>>
			<title>previous</title>
			<path d='M321.94 98L158.82 237.78a24 24 0 000 36.44L321.94 414c15.57 13.34 39.62 2.28 39.62-18.22v-279.6c0-20.5-24.05-31.56-39.62-18.18z'/>
		</symbol>
		<symbol id="next" viewBox='0 0 512 512'>
			<title>next</title>
			<path d='M190.06 414l163.12-139.78a24 24 0 000-36.44L190.06 98c-15.57-13.34-39.62-2.28-39.62 18.22v279.6c0 20.5 24.05 31.56 39.62 18.18z'/>
		</symbol>
	</defs>

</svg>